<?xml version="1.0" encoding="utf-8"?><svg xmlns="http://www.w3.org/2000/svg" xmlns:xlink="http://www.w3.org/1999/xlink"><symbol viewBox="0 0 252 30" id="logo" xmlns="http://www.w3.org/2000/svg"><title>logo</title><desc>Created using Figma</desc><g transform="translate(62 -82)"><use xlink:href="#aa" transform="translate(111.765 82)" fill="#2A3054"/><use xlink:href="#ab" transform="translate(143.868 82)" fill="#2A3054"/><use xlink:href="#ac" transform="translate(165.254 82)" fill="#2A3054"/><use xlink:href="#ad" transform="translate(-62 82)" fill="#05ADE0"/><use xlink:href="#ae" transform="translate(-33.735 82)" fill="#05ADE0"/><use xlink:href="#af" transform="translate(-14.316 82)" fill="#05ADE0"/><use xlink:href="#ag" transform="translate(15.982 82)" fill="#05ADE0"/><use xlink:href="#ah" transform="translate(49.229 82)" fill="#05ADE0"/><use xlink:href="#ai" transform="translate(82.069 82)" fill="#05ADE0"/></g><defs><path id="aa" d="M30.485 30h-6.157l-5.064-10.665H7.348L2.085 30H0L14.994 0l15.491 30zM8.143 17.74h10.426L13.306 7.476 8.143 17.741z"/><path id="ab" d="M0 30V0h10.642c1.825 0 3.345.204 4.662.612 1.318.408 2.433 1.02 3.244 1.735.81.714 1.52 1.53 1.926 2.449.405.918.608 1.939.608 2.96 0 1.122-.203 2.142-.608 3.06-.406.919-.913 1.633-1.622 2.245-.71.613-1.42 1.123-2.331 1.429-.913.306-1.825.51-2.737.51L22.5 30h-6.689L6.487 13.776h4.155c.811 0 1.622-.205 2.23-.51.608-.307 1.115-.817 1.52-1.327.406-.613.71-1.225.912-1.939a8.008 8.008 0 0 0 .304-2.245c0-.816-.1-1.53-.304-2.245a5.096 5.096 0 0 0-1.013-1.939c-.405-.612-1.014-1.02-1.622-1.326-.608-.306-1.419-.51-2.33-.51H5.573V30H0z"/><path id="ac" d="M24.426 1.735H14.9V30H9.122V1.735H0V0h24.426v1.735z"/><path id="ad" d="M12.447 0c1.923 0 3.542.203 4.959.712 1.416.407 2.53 1.017 3.44 1.729.911.712 1.62 1.525 2.024 2.44.405.916.708 1.73.708 2.644 0 .916-.202 1.73-.505 2.543-.304.813-.911 1.424-1.62 2.034-.708.61-1.619 1.118-2.732 1.423a14.68 14.68 0 0 1-3.845.509v.102c1.518 0 2.934.203 4.048.61 1.113.406 2.226.915 3.035 1.627.81.712 1.417 1.525 1.822 2.44.405.916.607 1.831.607 2.95 0 1.017-.202 2.034-.708 2.949-.506 1.017-1.215 1.932-2.125 2.644-.911.813-2.125 1.424-3.441 1.932-1.316.509-2.935.712-4.756.712H0V0h12.447zm-.708 13.22a7.694 7.694 0 0 0 2.732-.508c.81-.305 1.417-.712 2.024-1.322a5.772 5.772 0 0 0 1.214-1.83c.304-.713.405-1.424.405-2.136 0-.712-.101-1.424-.405-2.136a5.773 5.773 0 0 0-1.214-1.83c-.506-.509-1.215-.916-2.125-1.322-.911-.305-1.822-.509-3.036-.509H5.768V13.22h5.97zm-.607 14.95c1.214 0 2.327-.204 3.339-.509a6 6 0 0 0 2.327-1.424c.608-.61 1.114-1.322 1.417-2.135.304-.814.506-1.627.506-2.543 0-.813-.101-1.627-.405-2.44-.303-.814-.708-1.526-1.315-2.136a7.206 7.206 0 0 0-2.227-1.525c-.91-.407-1.922-.61-3.035-.61h-5.97v13.22h5.363v.101z"/><path id="ae" d="M16.259 28.265V30H0V0h5.65v28.265H16.26z"/><path id="af" d="M30.485 30h-6.177l-5.08-10.665H7.272L2.093 30H0L14.944 0l15.541 30zM8.07 17.74h10.46L13.35 7.476 8.07 17.741z"/><path id="ag" d="M7.337 19.9c.517 1.6 1.137 3 2.067 4.3.93 1.2 2.067 2.3 3.41 3 1.344.8 2.894 1.2 4.754 1.2 1.653 0 2.996-.2 4.133-.6 1.137-.4 2.067-.8 2.894-1.2V16.1h-5.89v-1.7h11.78v11.8c-.723.4-1.653.9-2.583 1.3-.93.4-2.067.9-3.204 1.2-1.137.4-2.48.7-3.927.9-1.447.2-2.997.4-4.65.4-2.687 0-5.064-.4-7.027-1.3-2.067-.9-3.72-2-5.064-3.4-1.343-1.4-2.377-3-2.997-4.8C.413 18.7 0 16.9 0 15s.31-3.7.93-5.5c.62-1.8 1.653-3.4 2.894-4.8 1.343-1.4 2.996-2.6 4.96-3.4C10.747.4 13.02 0 15.708 0c1.653 0 3.1.1 4.34.3 1.24.2 2.377.5 3.41.9 1.033.4 1.86.8 2.584 1.3.723.5 1.343 1 1.963 1.6l-1.343 1.2c-1.344-1.1-2.79-2-4.444-2.7-1.654-.6-3.41-.9-5.374-.9-1.756 0-3.307.4-4.547 1.2-1.24.8-2.376 1.8-3.203 3s-1.447 2.7-1.86 4.3c-.414 1.6-.62 3.2-.62 4.9 0 1.6.206 3.2.723 4.8z"/><path id="ah" d="M31.485 20.526c-.723 1.777-1.651 3.356-3.097 4.836-1.342 1.381-3.097 2.566-5.058 3.355-2.065.888-4.439 1.283-7.123 1.283s-5.058-.395-7.123-1.283c-2.064-.888-3.716-1.974-5.058-3.355a13.266 13.266 0 0 1-2.994-4.836C.31 18.75 0 16.875 0 15s.31-3.75 1.032-5.526C1.755 7.697 2.684 6.02 4.13 4.638c1.342-1.381 3.097-2.566 5.058-3.355C11.252.395 13.523 0 16.207 0c2.684 0 5.058.395 7.123 1.283 2.065.888 3.716 1.974 5.058 3.454 1.342 1.381 2.374 3.059 3.097 4.835.723 1.777 1.032 3.652 1.032 5.527-.103 1.776-.413 3.651-1.032 5.427zM6.71 19.934c.413 1.58 1.032 3.06 1.858 4.244.826 1.282 1.858 2.27 3.2 3.059 1.239.79 2.684 1.184 4.44 1.184 1.754 0 3.096-.395 4.438-1.184 1.239-.79 2.271-1.776 3.097-3.06a14.481 14.481 0 0 0 1.858-4.243c.413-1.579.62-3.256.62-4.934 0-1.678-.207-3.355-.62-4.934-.413-1.58-1.032-3.06-1.858-4.244-.826-1.283-1.858-2.27-3.097-3.059-1.239-.79-2.684-1.184-4.439-1.184s-3.097.395-4.439 1.184c-1.239.79-2.27 1.776-3.2 3.06a14.482 14.482 0 0 0-1.858 4.243A19.612 19.612 0 0 0 6.09 15c0 1.678.207 3.355.62 4.934z"/><path id="ai" d="M15.68 12.492L24.277 0H44.712l-.81 1.536H25.29l-9.003 13.106V30H10.42V15.154L0 0h6.98l8.7 12.492z"/></defs></symbol></svg>