<?xml version="1.0" encoding="utf-8"?><svg xmlns="http://www.w3.org/2000/svg" xmlns:xlink="http://www.w3.org/1999/xlink"><symbol viewBox="0 0 16 10" id="Group" xmlns="http://www.w3.org/2000/svg"><title>Group</title><desc>Created using Figma</desc><use xlink:href="#aa" transform="matrix(1 0 0 -1 0 9.15)"/><defs><path id="aa" fill-rule="evenodd" d="M.375 6.675l6.3-6.1.2-.2c.5-.5 1.4-.5 1.9 0l.2.2 6.3 6.1c.7.5.7 1.3.1 1.9l-.2.2c-.5.5-1.4.5-1.9 0l-5.4-5.1-5.3 5.1c-.6.5-1.4.5-2 0l-.2-.2c-.5-.6-.5-1.4 0-1.9z"/></defs></symbol><symbol viewBox="0 0 10 17" id="arrowLeft" xmlns="http://www.w3.org/2000/svg"><title>arrowLeft</title><desc>Created using Figma</desc><use xlink:href="#ba" transform="rotate(-90 8.241 8.241)"/><defs><path id="ba" fill-rule="evenodd" d="M.375 6.675l6.3-6.1.2-.2c.5-.5 1.4-.5 1.9 0l.2.2 6.3 6.1c.7.5.7 1.3.1 1.9l-.2.2c-.5.5-1.4.5-1.9 0l-5.4-5.1-5.3 5.1c-.6.5-1.4.5-2 0l-.2-.2c-.5-.6-.5-1.4 0-1.9z"/></defs></symbol><symbol viewBox="0 0 10 17" id="arrowRight" xmlns="http://www.w3.org/2000/svg"><title>arrowRight</title><desc>Created using Figma</desc><use xlink:href="#ca" transform="matrix(0 -1 -1 0 9.482 16.482)"/><defs><path id="ca" fill-rule="evenodd" d="M.375 6.675l6.3-6.1.2-.2c.5-.5 1.4-.5 1.9 0l.2.2 6.3 6.1c.7.5.7 1.3.1 1.9l-.2.2c-.5.5-1.4.5-1.9 0l-5.4-5.1-5.3 5.1c-.6.5-1.4.5-2 0l-.2-.2c-.5-.6-.5-1.4 0-1.9z"/></defs></symbol><symbol viewBox="0 0 16 10" id="arrowUp" xmlns="http://www.w3.org/2000/svg"><title>arrowUp</title><desc>Created using Figma</desc><use xlink:href="#da"/><defs><path id="da" fill-rule="evenodd" d="M.375 6.675l6.3-6.1.2-.2c.5-.5 1.4-.5 1.9 0l.2.2 6.3 6.1c.7.5.7 1.3.1 1.9l-.2.2c-.5.5-1.4.5-1.9 0l-5.4-5.1-5.3 5.1c-.6.5-1.4.5-2 0l-.2-.2c-.5-.6-.5-1.4 0-1.9z"/></defs></symbol><symbol viewBox="0 0 23 23" id="cart" xmlns="http://www.w3.org/2000/svg"><title>cart</title><desc>Created using Figma</desc><use xlink:href="#ea"/><defs><path id="ea" d="M6.9 18.4a2.307 2.307 0 0 0-2.3 2.3c0 1.265 1.035 2.3 2.3 2.3s2.3-1.035 2.3-2.3-1.035-2.3-2.3-2.3zM0 0v2.3h2.3l4.14 8.74-1.61 2.76c-.115.345-.23.805-.23 1.15 0 1.265 1.035 2.3 2.3 2.3h13.8v-2.3H7.36a.247.247 0 0 1-.23-.23v-.115l1.035-1.955h8.51c.92 0 1.61-.46 1.955-1.15l4.14-7.475c.23-.23.23-.345.23-.575 0-.69-.46-1.15-1.15-1.15H4.83L3.795 0H0zm18.4 18.4a2.307 2.307 0 0 0-2.3 2.3c0 1.265 1.035 2.3 2.3 2.3s2.3-1.035 2.3-2.3-1.035-2.3-2.3-2.3z"/></defs></symbol><symbol viewBox="0 0 18 16" id="login" xmlns="http://www.w3.org/2000/svg"><title>login</title><desc>Created using Figma</desc><g><use xlink:href="#fa"/><use xlink:href="#fb"/></g><defs><path id="fa" fill-rule="evenodd" d="M9.908 11.7c0 2.2 1.8 3.9 3.9 3.9 2.1 0 3.8-1.7 3.9-3.9 0-2.2-1.8-3.9-3.9-3.9-2.2 0-3.9 1.8-3.9 3.9zM17 10.028L13.441 14 11 11.243l.91-1.028 1.531 1.776L16.09 9l.91 1.028z"/><path id="fb" d="M10.008 8.4s.8-.7 1.2-1.8c.13-.087.242-.155.338-.213.344-.21.484-.296.562-.687 0 0 .3-1.7-.4-1.7 0 0-.7.1-.6-.3.065-.258.046-.433.024-.632a3.24 3.24 0 0 1-.024-.368c-.024-.095-.025-.24-.026-.41-.005-.545-.011-1.337-.774-1.49C9.926.736 9.868.754 9.8.775A.555.555 0 0 1 9.61.8c-.125 0-.25-.137-.395-.298C9.008.275 8.76 0 8.408 0l-1 .1c-.351 0-.325.069-.304.125.015.04.028.075-.096.075a.406.406 0 0 1-.07-.004c.069-.02.055-.023.03-.02-.023.004-.058.014-.03.02a7.4 7.4 0 0 1-.43.104c-1 .2-1.2 1.4-1.2 1.8v1.2c0 .4-.4.4-.4.4-.5 0-.6 1.7-.6 1.7.015.074.025.141.035.204.055.357.084.54.765.796.4 1.1 1.4 1.7 1.4 1.7s.1.7.1 1.2c-.017 0-.03.037-.055.1-.118.312-.482 1.267-2.645 1.6-2.235.358-2.871 1.035-3.338 1.532a7.698 7.698 0 0 1-.162.168c-.5.5-.4 2.7-.4 2.7l10.6.1c-1-.9-1.7-2.3-1.7-3.8 0-1.2.4-2.3 1.1-3.2v-.2z"/></defs></symbol><symbol viewBox="0 0 18 11" id="menu" xmlns="http://www.w3.org/2000/svg"><title>menu</title><desc>Created using Figma</desc><use xlink:href="#ga"/><defs><path id="ga" d="M16 2.1H5.3c-.6 0-1.1-.5-1.1-1.1.1-.5.5-1 1.1-1H16c.6 0 1 .5 1 1.1 0 .6-.4 1-1 1zm-14.9 0c-.6 0-1.1-.4-1.1-1S.5 0 1.1 0c.6 0 1.1.5 1.1 1.1-.1.6-.5 1-1.1 1zM16 6.4H5.3c-.6 0-1.1-.5-1.1-1.1 0-.6.5-1.1 1.1-1.1H16c.6 0 1.1.5 1.1 1.1-.1.6-.5 1.1-1.1 1.1zm-14.9 0C.5 6.4 0 5.9 0 5.3c0-.6.5-1.1 1.1-1.1.6 0 1.1.5 1.1 1.1-.1.6-.5 1.1-1.1 1.1zM16 10.7H5.3c-.6 0-1.1-.5-1.1-1.1 0-.6.5-1.1 1.1-1.1H16c.6 0 1 .5 1 1.1 0 .6-.4 1.1-1 1.1zm-14.9 0c-.6 0-1.1-.5-1.1-1.1 0-.6.5-1.1 1.1-1.1.6 0 1.1.5 1.1 1.1-.1.6-.5 1.1-1.1 1.1z"/></defs></symbol><symbol viewBox="0 0 18 18" id="search" xmlns="http://www.w3.org/2000/svg"><title>search</title><desc>Created using Figma</desc><use xlink:href="#ha" transform="matrix(-1 0 0 1 17.1 0)"/><defs><path id="ha" d="M10.7 12.8c-3.5 0-6.4-2.9-6.4-6.4C4.3 2.9 7.2 0 10.7 0c3.5 0 6.4 2.9 6.4 6.4 0 3.5-2.9 6.4-6.4 6.4zm0-10.7C8.3 2.1 6.4 4 6.4 6.4c0 2.3 1.9 4.3 4.3 4.3 2.3 0 4.3-1.9 4.3-4.3s-2-4.3-4.3-4.3zm-8.5 15L0 14.9l4.2-4.2c.4.6 1.6 1.7 2.2 2.2l-4.2 4.2z"/></defs></symbol></svg>