<svg width="23" height="23" viewBox="0 0 23 23" version="1.1" xmlns="http://www.w3.org/2000/svg" xmlns:xlink="http://www.w3.org/1999/xlink">
<title>cart</title>
<desc>Created using Figma</desc>
<g id="Canvas" transform="translate(496 358)">
<g id="cart">
<use xlink:href="#path0_fill" transform="translate(-496 -358)"/>
</g>
</g>
<defs>
<path id="path0_fill" d="M 6.9 18.4C 5.635 18.4 4.6 19.435 4.6 20.7C 4.6 21.965 5.635 23 6.9 23C 8.165 23 9.2 21.965 9.2 20.7C 9.2 19.435 8.165 18.4 6.9 18.4ZM 0 0L 0 2.3L 2.3 2.3L 6.44 11.04L 4.83 13.8C 4.715 14.145 4.6 14.605 4.6 14.95C 4.6 16.215 5.635 17.25 6.9 17.25L 20.7 17.25L 20.7 14.95L 7.36 14.95C 7.245 14.95 7.13 14.835 7.13 14.72L 7.13 14.605L 8.165 12.65L 16.675 12.65C 17.595 12.65 18.285 12.19 18.63 11.5L 22.77 4.025C 23 3.795 23 3.68 23 3.45C 23 2.76 22.54 2.3 21.85 2.3L 4.83 2.3L 3.795 0L 0 0ZM 18.4 18.4C 17.135 18.4 16.1 19.435 16.1 20.7C 16.1 21.965 17.135 23 18.4 23C 19.665 23 20.7 21.965 20.7 20.7C 20.7 19.435 19.665 18.4 18.4 18.4Z"/>
</defs>
</svg>
