<svg width="18" height="18" viewBox="0 0 18 18" version="1.1" xmlns="http://www.w3.org/2000/svg" xmlns:xlink="http://www.w3.org/1999/xlink">
<title>search</title>
<desc>Created using Figma</desc>
<g id="Canvas" transform="translate(86 81)">
<g id="search">
<use xlink:href="#path0_fill" transform="matrix(-1 0 0 1 -68.9 -81)" fill="#231F20"/>
</g>
</g>
<defs>
<path id="path0_fill" d="M 10.7 12.8C 7.2 12.8 4.3 9.9 4.3 6.4C 4.3 2.9 7.2 0 10.7 0C 14.2 0 17.1 2.9 17.1 6.4C 17.1 9.9 14.2 12.8 10.7 12.8ZM 10.7 2.1C 8.3 2.1 6.4 4 6.4 6.4C 6.4 8.7 8.3 10.7 10.7 10.7C 13 10.7 15 8.8 15 6.4C 15 4 13 2.1 10.7 2.1ZM 2.2 17.1L 0 14.9L 4.2 10.7C 4.6 11.3 5.8 12.4 6.4 12.9L 2.2 17.1Z"/>
</defs>
</svg>
