<svg width="252" height="30" viewBox="0 0 252 30" version="1.1" xmlns="http://www.w3.org/2000/svg" xmlns:xlink="http://www.w3.org/1999/xlink">
<title>logo</title>
<desc>Created using Figma</desc>
<g id="Canvas" transform="translate(62 -82)">
<g id="logo">
<g id="Vector">
<use xlink:href="#path0_fill" transform="translate(111.765 82)" fill="#2A3054"/>
</g>
<g id="Vector">
<use xlink:href="#path1_fill" transform="translate(143.868 82)" fill="#2A3054"/>
</g>
<g id="Vector">
<use xlink:href="#path2_fill" transform="translate(165.254 82)" fill="#2A3054"/>
</g>
<g id="Vector">
<use xlink:href="#path3_fill" transform="translate(-62 82)" fill="#05ADE0"/>
</g>
<g id="Vector">
<use xlink:href="#path4_fill" transform="translate(-33.7353 82)" fill="#05ADE0"/>
</g>
<g id="Vector">
<use xlink:href="#path5_fill" transform="translate(-14.316 82)" fill="#05ADE0"/>
</g>
<g id="Vector">
<use xlink:href="#path6_fill" transform="translate(15.9822 82)" fill="#05ADE0"/>
</g>
<g id="Vector">
<use xlink:href="#path7_fill" transform="translate(49.2289 82)" fill="#05ADE0"/>
</g>
<g id="Vector">
<use xlink:href="#path8_fill" transform="translate(82.0688 82)" fill="#05ADE0"/>
</g>
</g>
</g>
<defs>
<path id="path0_fill" d="M 30.4851 30L 24.3285 30L 19.2642 19.3355L 7.3482 19.3355L 2.08529 30L 0 30L 14.9943 0L 30.4851 30ZM 8.1426 17.7409L 18.5691 17.7409L 13.3062 7.47508L 8.1426 17.7409Z"/>
<path id="path1_fill" d="M 3.09307e-06 30L 3.09307e-06 4.86569e-08L 10.6422 4.86569e-08C 12.4665 4.86569e-08 13.9868 0.204082 15.3044 0.612245C 16.622 1.02041 17.7369 1.63265 18.5478 2.34694C 19.3586 3.06122 20.0681 3.87755 20.4735 4.79592C 20.8789 5.71429 21.0816 6.73469 21.0816 7.7551C 21.0816 8.87755 20.8789 9.89796 20.4735 10.8163C 20.0681 11.7347 19.5613 12.449 18.8518 13.0612C 18.1423 13.6735 17.4329 14.1837 16.5207 14.4898C 15.6085 14.7959 14.6963 15 13.7841 15L 22.5005 30L 15.8112 30L 6.48664 13.7755L 10.6422 13.7755C 11.453 13.7755 12.2638 13.5714 12.8719 13.2653C 13.4801 12.9592 13.9868 12.449 14.3922 11.9388C 14.7977 11.3265 15.1017 10.7143 15.3044 10C 15.5071 9.28571 15.6085 8.57143 15.6085 7.7551C 15.6085 6.93878 15.5071 6.22449 15.3044 5.5102C 15.1017 4.79592 14.7976 4.18367 14.2909 3.57143C 13.8855 2.95918 13.2773 2.55102 12.6692 2.2449C 12.0611 1.93878 11.2503 1.73469 10.3381 1.73469L 5.57446 1.73469L 5.57446 30L 3.09307e-06 30Z"/>
<path id="path2_fill" d="M 24.4263 1.73469L 14.899 1.73469L 14.899 30L 9.12184 30L 9.12184 1.73469L -6.18615e-06 1.73469L -6.18615e-06 4.86569e-08L 24.4263 4.86569e-08L 24.4263 1.73469Z"/>
<path id="path3_fill" d="M 12.447 0C 14.3697 0 15.9889 0.20339 17.4056 0.711864C 18.8223 1.11864 19.9355 1.72881 20.8462 2.44068C 21.757 3.15254 22.4654 3.9661 22.8702 4.88136C 23.2749 5.79661 23.5785 6.61017 23.5785 7.52542C 23.5785 8.44068 23.3761 9.25424 23.0725 10.0678C 22.769 10.8814 22.1618 11.4915 21.4534 12.1017C 20.7451 12.7119 19.8343 13.2203 18.7211 13.5254C 17.608 13.8305 16.2925 14.0339 14.8757 14.0339C 14.8757 14.1356 14.8757 14.1356 14.8757 14.1356C 16.3937 14.1356 17.8104 14.339 18.9235 14.7458C 20.0367 15.1525 21.1498 15.661 21.9594 16.3729C 22.769 17.0847 23.3761 17.8983 23.7809 18.8136C 24.1857 19.7288 24.3881 20.6441 24.3881 21.7627C 24.3881 22.7797 24.1857 23.7966 23.6797 24.7119C 23.1737 25.7288 22.4654 26.6441 21.5546 27.3559C 20.6439 28.1695 19.4295 28.7797 18.114 29.2881C 16.7984 29.7966 15.1793 30 13.3578 30L 0 30L 0 0L 12.447 0ZM 11.7387 13.2203C 12.7506 13.2203 13.6614 13.0169 14.4709 12.7119C 15.2805 12.4068 15.8877 12 16.4948 11.3898C 17.0008 10.8814 17.4056 10.2712 17.7092 9.55932C 18.0128 8.84746 18.114 8.13559 18.114 7.42373C 18.114 6.71186 18.0128 6 17.7092 5.28814C 17.4056 4.57627 17.0008 3.9661 16.4948 3.45763C 15.9889 2.94915 15.2805 2.54237 14.3697 2.13559C 13.459 1.83051 12.5482 1.62712 11.3339 1.62712L 5.76814 1.62712L 5.76814 13.2203L 11.7387 13.2203ZM 11.1315 28.1695C 12.3458 28.1695 13.459 27.9661 14.4709 27.661C 15.3817 27.3559 16.1913 26.8475 16.7984 26.2373C 17.4056 25.6271 17.9116 24.9153 18.2152 24.1017C 18.5188 23.2881 18.7211 22.4746 18.7211 21.5593C 18.7211 20.7458 18.6199 19.9322 18.3164 19.1186C 18.0128 18.3051 17.608 17.5932 17.0008 16.9831C 16.3937 16.3729 15.6853 15.8644 14.7745 15.4576C 13.8638 15.0508 12.8518 14.8475 11.7387 14.8475L 5.76814 14.8475L 5.76814 28.0678L 11.1315 28.0678L 11.1315 28.1695Z"/>
<path id="path4_fill" d="M 16.2587 28.2653L 16.2587 30L 0 30L 0 0L 5.6509 0L 5.6509 28.2653L 16.2587 28.2653Z"/>
<path id="path5_fill" d="M 30.4851 30L 24.3084 30L 19.2275 19.3355L 7.27259 19.3355L 2.09212 30L 1.52015e-06 30L 14.9437 0L 30.4851 30ZM 8.06959 17.7409L 18.5302 17.7409L 13.3497 7.47508L 8.06959 17.7409Z"/>
<path id="path6_fill" d="M 7.3371 19.9C 7.8538 21.5 8.47383 22.9 9.40389 24.2C 10.3339 25.4 11.4707 26.5 12.8141 27.2C 14.1575 28 15.7076 28.4 17.5677 28.4C 19.2211 28.4 20.5645 28.2 21.7013 27.8C 22.838 27.4 23.7681 27 24.5948 26.6L 24.5948 16.1L 18.7044 16.1L 18.7044 14.4L 30.4851 14.4L 30.4851 26.2C 29.7617 26.6 28.8317 27.1 27.9016 27.5C 26.9716 27.9 25.8348 28.4 24.6981 28.7C 23.5614 29.1 22.218 29.4 20.7712 29.6C 19.3245 29.8 17.7744 30 16.1209 30C 13.4341 30 11.0573 29.6 9.09387 28.7C 7.02708 27.8 5.37365 26.7 4.03024 25.3C 2.68683 23.9 1.65343 22.3 1.03339 20.5C 0.413358 18.7 0 16.9 0 15C 0 13.1 0.31002 11.3 0.930056 9.5C 1.55009 7.7 2.58349 6.1 3.82356 4.7C 5.16697 3.3 6.8204 2.1 8.78385 1.3C 10.7473 0.4 13.0208 0 15.7076 0C 17.361 0 18.8078 0.1 20.0478 0.3C 21.2879 0.5 22.4246 0.8 23.458 1.2C 24.4914 1.6 25.3182 2 26.0415 2.5C 26.7649 3 27.3849 3.5 28.005 4.1L 26.6616 5.3C 25.3181 4.2 23.8714 3.3 22.218 2.6C 20.5645 2 18.8078 1.7 16.8443 1.7C 15.0876 1.7 13.5375 2.1 12.2974 2.9C 11.0573 3.7 9.92058 4.7 9.09387 5.9C 8.26715 7.1 7.64711 8.6 7.23376 10.2C 6.8204 11.8 6.61372 13.4 6.61372 15.1C 6.61372 16.7 6.82041 18.3 7.3371 19.9Z"/>
<path id="path7_fill" d="M 31.4852 20.5263C 30.7625 22.3026 29.8335 23.8816 28.3883 25.3618C 27.0463 26.7434 25.2914 27.9276 23.33 28.7171C 21.2654 29.6053 18.8911 30 16.2071 30C 13.5231 30 11.1488 29.6053 9.08424 28.7171C 7.01964 27.8289 5.36796 26.7434 4.02597 25.3618C 2.68398 23.9803 1.65168 22.3026 1.0323 20.5263C 0.30969 18.75 0 16.875 0 15C 0 13.125 0.30969 11.25 1.0323 9.47368C 1.75491 7.69737 2.68398 6.01974 4.1292 4.63816C 5.47119 3.25658 7.22611 2.07237 9.18748 1.28289C 11.2521 0.394737 13.5231 0 16.2071 0C 18.8911 0 21.2654 0.394737 23.33 1.28289C 25.3946 2.17105 27.0463 3.25658 28.3883 4.73684C 29.7302 6.11842 30.7625 7.79605 31.4852 9.57237C 32.2078 11.3487 32.5175 13.2237 32.5175 15.0987C 32.4142 16.875 32.1045 18.75 31.4852 20.5263ZM 6.70995 19.9342C 7.12287 21.5132 7.74225 22.9934 8.56809 24.1776C 9.39393 25.4605 10.4262 26.4474 11.7682 27.2368C 13.007 28.0263 14.4522 28.4211 16.2071 28.4211C 17.962 28.4211 19.304 28.0263 20.646 27.2368C 21.8848 26.4474 22.9171 25.4605 23.7429 24.1776C 24.5687 22.8947 25.1881 21.5132 25.601 19.9342C 26.014 18.3553 26.2204 16.6776 26.2204 15C 26.2204 13.3224 26.014 11.6447 25.601 10.0658C 25.1881 8.48684 24.5687 7.00658 23.7429 5.82237C 22.9171 4.53947 21.8848 3.55263 20.646 2.76316C 19.4072 1.97368 17.962 1.57895 16.2071 1.57895C 14.4522 1.57895 13.1102 1.97368 11.7682 2.76316C 10.5295 3.55263 9.49716 4.53947 8.56809 5.82237C 7.74225 7.10526 7.12287 8.48684 6.70995 10.0658C 6.29703 11.6447 6.09057 13.3224 6.09057 15C 6.09057 16.6776 6.29703 18.3553 6.70995 19.9342Z"/>
<path id="path8_fill" d="M 15.6794 12.4915L 24.2777 0L 26.402 0L 44.7115 0L 43.9022 1.53584L 25.2893 1.53584L 16.2863 14.6416L 16.2863 30L 10.4192 30L 10.4192 15.1536L -3.08707e-06 0L 6.97986 0L 15.6794 12.4915Z"/>
</defs>
</svg>
