<svg width="21" height="16" viewBox="0 0 21 16" version="1.1" xmlns="http://www.w3.org/2000/svg" xmlns:xlink="http://www.w3.org/1999/xlink">
<title>home</title>
<desc>Created using Figma</desc>
<g id="Canvas" transform="translate(100 -13)">
<g id="home">
<use xlink:href="#path0_fill" transform="translate(-99.9953 13.0038)" fill="#030104"/>
<use xlink:href="#path1_fill" transform="translate(-99.9953 13.0038)" fill="#030104"/>
<use xlink:href="#path2_fill" transform="translate(-99.9953 13.0038)" fill="#030104"/>
</g>
</g>
<defs>
<path id="path0_fill" d="M 2.71475 15.5925C 2.71475 15.5925 2.69698 15.9962 3.1337 15.9962C 3.677 15.9962 8.17515 15.9908 8.17515 15.9908L 8.18255 12.2608C 8.18255 12.2608 8.11149 11.646 8.77248 11.646L 10.8643 11.646C 11.6459 11.646 11.5978 12.2608 11.5978 12.2608L 11.5889 15.9788C 11.5889 15.9788 15.8539 15.9788 16.5238 15.9788C 17.0782 15.9788 17.053 15.4762 17.053 15.4762L 17.053 8.59969L 10.0982 3.01372L 2.71475 8.59969L 2.71475 15.5925Z"/>
<path id="path1_fill" d="M 0 8.08354C 0 8.08354 0.626943 9.12682 1.99408 8.08354L 10.1643 1.84261L 17.8246 8.04478C 19.4071 9.07536 20 8.04478 20 8.04478L 10.1643 0L 0 8.08354Z"/>
<path id="path2_fill" d="M 16.9953 1.99618L 14.9953 1.99618L 14.9953 3.95133L 16.9953 5.5872L 16.9953 1.99618Z"/>
</defs>
</svg>
