<svg width="18" height="16" viewBox="0 0 18 16" version="1.1" xmlns="http://www.w3.org/2000/svg" xmlns:xlink="http://www.w3.org/1999/xlink">
<title>login</title>
<desc>Created using Figma</desc>
<g id="Canvas" transform="translate(-90 72)">
<g id="login">
<use xlink:href="#path0_fill" transform="translate(90 -72)" fill="#231F20"/>
<use xlink:href="#path1_fill" transform="translate(90 -72)" fill="#231F20"/>
</g>
</g>
<defs>
<path id="path0_fill" fill-rule="evenodd" d="M 9.90816 11.7C 9.90816 13.9 11.7082 15.6 13.8082 15.6C 15.9082 15.6 17.6082 13.9 17.7082 11.7C 17.7082 9.5 15.9082 7.8 13.8082 7.8C 11.6082 7.8 9.90816 9.6 9.90816 11.7ZM 17 10.028L 13.4414 14L 11 11.243L 11.9103 10.215L 13.4414 11.9907L 16.0897 9L 17 10.028Z"/>
<path id="path1_fill" d="M 10.0082 8.4C 10.0082 8.4 10.8082 7.7 11.2082 6.6C 11.3387 6.51299 11.4502 6.44492 11.546 6.3865C 11.8904 6.17635 12.0299 6.09124 12.1082 5.7C 12.1082 5.7 12.4082 4 11.7082 4C 11.7082 4 11.0082 4.1 11.1082 3.7C 11.1727 3.4417 11.1539 3.2668 11.1325 3.06758C 11.1207 2.9583 11.1082 2.8417 11.1082 2.7C 11.0844 2.60506 11.0832 2.45941 11.0818 2.2898C 11.0773 1.74485 11.0708 0.95253 10.3082 0.800003C 9.92569 0.736252 9.86829 0.753777 9.79924 0.774864C 9.75997 0.786858 9.71693 0.800003 9.60816 0.800003C 9.4839 0.800003 9.35963 0.662743 9.21405 0.501938C 9.00816 0.274521 8.75963 0 8.40816 0L 7.40816 0.0999985C 7.05669 0.0999985 7.08268 0.168633 7.10421 0.225487C 7.11944 0.265686 7.13243 0.300003 7.00816 0.300003C 6.9705 0.300003 6.9486 0.298424 6.93732 0.296059C 7.00655 0.27552 6.99293 0.272675 6.96881 0.276382C 6.94469 0.28009 6.91008 0.290359 6.93732 0.296059C 6.87601 0.314247 6.74971 0.346321 6.50816 0.400002C 5.50816 0.599998 5.30817 1.8 5.30817 2.2L 5.30817 3.4C 5.30817 3.8 4.90816 3.8 4.90816 3.8C 4.40816 3.8 4.30817 5.5 4.30817 5.5C 4.32297 5.574 4.33338 5.64142 4.34299 5.70357C 4.39828 6.06139 4.42656 6.24439 5.10816 6.5C 5.50816 7.6 6.50816 8.2 6.50816 8.2C 6.50816 8.2 6.60816 8.9 6.60816 9.4C 6.59135 9.4 6.57736 9.43675 6.55337 9.4998C 6.43466 9.81171 6.07101 10.7673 3.90816 11.1C 1.67343 11.4576 1.03679 12.1347 0.569717 12.6315C 0.514274 12.6905 0.461219 12.7469 0.408165 12.8C -0.0918355 13.3 0.00816296 15.5 0.00816296 15.5L 10.6082 15.6C 9.60816 14.7 8.90816 13.3 8.90816 11.8C 8.90816 10.6 9.30817 9.5 10.0082 8.6L 10.0082 8.4Z"/>
</defs>
</svg>
