<svg width="18" height="11" viewBox="0 0 18 11" version="1.1" xmlns="http://www.w3.org/2000/svg" xmlns:xlink="http://www.w3.org/1999/xlink">
<title>menu</title>
<desc>Created using Figma</desc>
<g id="Canvas" transform="translate(-22 73)">
<g id="menu">
<use xlink:href="#path0_fill" transform="translate(22 -73)" fill="#231F20"/>
</g>
</g>
<defs>
<path id="path0_fill" d="M 16 2.1L 5.3 2.1C 4.7 2.1 4.2 1.6 4.2 1C 4.3 0.5 4.7 0 5.3 0L 16 0C 16.6 0 17 0.5 17 1.1C 17 1.7 16.6 2.1 16 2.1ZM 1.1 2.1C 0.5 2.1 0 1.7 0 1.1C 0 0.5 0.5 0 1.1 0C 1.7 0 2.2 0.5 2.2 1.1C 2.1 1.7 1.7 2.1 1.1 2.1ZM 16 6.4L 5.3 6.4C 4.7 6.4 4.2 5.9 4.2 5.3C 4.2 4.7 4.7 4.2 5.3 4.2L 16 4.2C 16.6 4.2 17.1 4.7 17.1 5.3C 17 5.9 16.6 6.4 16 6.4ZM 1.1 6.4C 0.5 6.4 0 5.9 0 5.3C 0 4.7 0.5 4.2 1.1 4.2C 1.7 4.2 2.2 4.7 2.2 5.3C 2.1 5.9 1.7 6.4 1.1 6.4ZM 16 10.7L 5.3 10.7C 4.7 10.7 4.2 10.2 4.2 9.6C 4.2 9 4.7 8.5 5.3 8.5L 16 8.5C 16.6 8.5 17 9 17 9.6C 17 10.2 16.6 10.7 16 10.7ZM 1.1 10.7C 0.5 10.7 0 10.2 0 9.6C 0 9 0.5 8.5 1.1 8.5C 1.7 8.5 2.2 9 2.2 9.6C 2.1 10.2 1.7 10.7 1.1 10.7Z"/>
</defs>
</svg>
