<svg width="17" height="17" viewBox="0 0 17 17" version="1.1" xmlns="http://www.w3.org/2000/svg" xmlns:xlink="http://www.w3.org/1999/xlink">
<title>tel</title>
<desc>Created using Figma</desc>
<g id="Canvas" transform="translate(73 -9)">
<g id="tel">
<use xlink:href="#path0_fill" transform="translate(-73 9)"/>
<use xlink:href="#path1_fill" transform="translate(-73 9)"/>
<use xlink:href="#path2_fill" transform="translate(-73 9)"/>
<use xlink:href="#path3_fill" transform="translate(-73 9)"/>
</g>
</g>
<defs>
<path id="path0_fill" d="M 13.8471 7.1338C 13.8668 4.73702 11.8938 2.5398 9.44901 2.23597C 9.40038 2.23 9.34741 2.22092 9.29133 2.21131C 9.1703 2.19057 9.04513 2.16924 8.91884 2.16924C 8.41776 2.16924 8.28381 2.53342 8.24856 2.75061C 8.21427 2.96179 8.24697 3.13913 8.34561 3.27793C 8.51155 3.51139 8.80352 3.55283 9.03804 3.58604C 9.10677 3.59586 9.17163 3.60499 9.22592 3.61761C 11.4225 4.12544 12.1621 4.92386 12.5236 7.17725C 12.5324 7.23232 12.5364 7.30016 12.5407 7.37212C 12.5564 7.64148 12.5893 8.20189 13.1716 8.20189C 13.2201 8.20189 13.2722 8.19757 13.3265 8.18901C 13.8687 8.10375 13.8517 7.59148 13.8436 7.34535C 13.8413 7.27603 13.8391 7.21046 13.8447 7.16685C 13.8463 7.15587 13.847 7.14484 13.8471 7.1338Z"/>
<path id="path1_fill" d="M 8.77668 1.35619C 8.84174 1.36105 8.90333 1.3657 8.95461 1.37383C 12.5616 1.94776 14.2204 3.71597 14.6801 7.47718C 14.688 7.54111 14.6892 7.61909 14.6905 7.70166C 14.695 7.99552 14.7045 8.60683 15.339 8.6195L 15.3587 8.61971C 15.5577 8.61971 15.716 8.55763 15.8292 8.43504C 16.0267 8.22127 16.013 7.90371 16.0018 7.6485C 15.9991 7.58588 15.9965 7.52691 15.9972 7.47528C 16.0431 3.62854 12.8248 0.140329 9.11024 0.0106118C 9.09483 0.0100838 9.08013 0.0109285 9.06529 0.0130931C 9.05799 0.0142018 9.04447 0.0155745 9.0213 0.0155745C 8.98426 0.0155745 8.93869 0.0122484 8.89037 0.00886954C 8.83194 0.00475154 8.76571 0 8.69856 0C 8.10701 0 7.99454 0.43503 7.98015 0.694358C 7.94699 1.29369 8.50736 1.33587 8.77668 1.35619Z"/>
<path id="path2_fill" d="M 14.2717 13.0051C 14.195 12.9445 14.1157 12.8818 14.0415 12.8199C 13.6477 12.492 13.2287 12.1898 12.8235 11.8974C 12.7394 11.8368 12.6553 11.7762 12.5715 11.7153C 12.0525 11.3381 11.5858 11.1548 11.145 11.1548C 10.7417 11.1548 10.4932 11.1216 10.0659 11.791C 9.87661 12.0878 9.1385 11.9379 9.1385 11.9379C 9.1385 11.9379 8.78096 11.8885 8.57333 11.791C 6.89798 11.0049 5.70166 9.79973 5.01755 8.20886C 4.68685 7.43996 4.11094 6.90905 4.69295 6.5C 5.02345 6.26791 5.63863 5.83584 5.59505 5.00844C 5.54571 4.06885 3.542 1.24174 2.69776 0.920637C 2.34032 0.784638 1.96477 0.78337 1.57952 0.917469C 0.608991 1.25504 0.00732635 2.5 0.00732422 3C 0.00732427 3.5 -0.0720969 4.3069 0.292182 5.23208C 1.34527 7.90698 2.82586 10.2391 4.69297 12.1637C 6.52054 14.0476 8.76677 15.5908 11.3692 16.7502C 11.6038 16.8547 11.8499 16.9116 12.0295 16.9532C 12.0907 16.9674 12.1436 16.9796 12.1821 16.9905C 12.2033 16.9965 12.2252 16.9997 12.247 16.9999L 12.2676 17C 13.4916 17 14.7271 16.5095 15.1785 15.1902C 15.5739 14.0349 14.8519 13.4639 14.2717 13.0051Z"/>
<path id="path3_fill" d="M 9.31809 4.41175C 9.10852 4.41724 8.67239 4.42843 8.51937 4.88801C 8.44778 5.10278 8.45635 5.28925 8.54488 5.44225C 8.67479 5.66674 8.9237 5.73553 9.15011 5.77328C 9.97118 5.90959 10.3929 6.37936 10.4772 7.25153C 10.5164 7.65821 10.7811 7.9422 11.1209 7.9422C 11.146 7.9422 11.1717 7.94066 11.1973 7.93744C 11.606 7.88713 11.8042 7.57643 11.7862 7.01406C 11.7928 6.42714 11.4959 5.76082 10.991 5.23007C 10.4843 4.69769 9.87361 4.39786 9.31809 4.41175Z"/>
</defs>
</svg>
